<?xml version="1.0" encoding="utf-8"?>
<svg viewBox="0 0 500 500" xmlns="http://www.w3.org/2000/svg" xmlns:bx="https://boxy-svg.com">
  <g transform="matrix(0.831028, 0.831028, -0.831028, 0.831028, 224.477268, -140.233645)" style="">
    <path d="M 544.8 457.2 m -159 0 a 159 159 0 1 0 318 0 a 159 159 0 1 0 -318 0 Z M 544.8 457.2 m -101 0 a 101 101.105 0 0 1 202 0 a 101 101.105 0 0 1 -202 0 Z" style="stroke: rgb(0, 0, 0); fill: rgb(255, 252, 252); stroke-width: 11px;" transform="matrix(0.702178, 0.712002, -0.712002, 0.702178, 192.980819, -549.065859)" bx:shape="ring 544.8 457.2 101 101.105 159 159 1@f180be15"/>
    <rect rx="5" ry="5" style="stroke: rgb(0, 0, 0); fill: rgb(255, 255, 255); stroke-width: 11px;" height="186.655" transform="matrix(1, -0.000034, 0.000034, 1, 436.113678, 650.961731)" x="-221.452" y="-363.471" width="70.695"/>
    <path d="M 544.8 457.2 m -154 0 a 154 154 0 1 0 308 0 a 154 154 0 1 0 -308 0 Z M 544.8 457.2 m -109 0 a 109 109.099 0 0 1 218 0 a 109 109.099 0 0 1 -218 0 Z" style="fill: rgb(255, 252, 252); stroke-width: 16px;" transform="matrix(0.702178, 0.712002, -0.712002, 0.702178, 192.980804, -549.065675)" bx:shape="ring 544.8 457.2 109 109.099 154 154 1@52aa24a8"/>
  </g>
</svg>